<?xml version="1.0" encoding="UTF-8" standalone="no"?>
<svg
   xmlns:dc="http://purl.org/dc/elements/1.1/"
   xmlns:cc="http://creativecommons.org/ns#"
   xmlns:rdf="http://www.w3.org/1999/02/22-rdf-syntax-ns#"
   xmlns:svg="http://www.w3.org/2000/svg"
   xmlns="http://www.w3.org/2000/svg"
   xmlns:sodipodi="http://sodipodi.sourceforge.net/DTD/sodipodi-0.dtd"
   xmlns:inkscape="http://www.inkscape.org/namespaces/inkscape"
   viewBox="0 0 200 200"
   id="svg2"
   version="1.1"
   inkscape:version="0.48.4 r9939"
   width="100%"
   height="100%"
   sodipodi:docname="black-37383.svg">
  <metadata
     id="metadata26">
    <rdf:RDF>
      <cc:Work
         rdf:about="">
        <dc:format>image/svg+xml</dc:format>
        <dc:type
           rdf:resource="http://purl.org/dc/dcmitype/StillImage" />
        <dc:title></dc:title>
      </cc:Work>
    </rdf:RDF>
  </metadata>
  <defs
     id="defs24" />
  <sodipodi:namedview
     pagecolor="#ffffff"
     bordercolor="#666666"
     borderopacity="1"
     objecttolerance="10"
     gridtolerance="10"
     guidetolerance="10"
     inkscape:pageopacity="0"
     inkscape:pageshadow="2"
     inkscape:window-width="1615"
     inkscape:window-height="1026"
     id="namedview22"
     showgrid="false"
     showguides="true"
     inkscape:guide-bbox="true"
     inkscape:zoom="1.18"
     inkscape:cx="350.12128"
     inkscape:cy="-89.083609"
     inkscape:window-x="65"
     inkscape:window-y="24"
     inkscape:window-maximized="1"
     inkscape:current-layer="svg2" />
  <path
     style="fill:#888888;fill-opacity:1"
     d="M 89.6875 11.96875 C 67.608908 11.96875 4.2342617 15.933613 4.34375 69.25 C 4.3484 72.24651 10.05334 82.673716 14.8125 83.78125 C 50.047409 91.981059 51.961889 120.21866 49.84375 142.5 C 49.68189 144.18721 52.601845 155.95964 55.09375 158.9375 C 75.301273 183.08572 82.159422 193.6562 109.4375 193.65625 C 163.99375 193.65625 194.625 166.07033 194.625 110.8125 C 194.625 55.554675 144.2437 11.96875 89.6875 11.96875 z M 92.3125 25.875 A 16.279016 16.279076 0 0 1 108.125 42.15625 A 16.28125 16.28131 0 0 1 75.5625 42.15625 A 16.279016 16.279076 0 0 1 92.3125 25.875 z M 138.53125 48.84375 A 16.279016 16.279076 0 0 1 154.34375 65.125 A 16.28125 16.28131 0 0 1 121.78125 65.125 A 16.279016 16.279076 0 0 1 138.53125 48.84375 z M 166.15625 91 A 16.279016 16.279076 0 0 1 181.96875 107.28125 A 16.28125 16.28131 0 0 1 149.40625 107.28125 A 16.279016 16.279076 0 0 1 166.15625 91 z M 143.75 132.8125 A 16.279016 16.279076 0 0 1 159.5625 149.09375 A 16.28125 16.28131 0 0 1 127 149.09375 A 16.279016 16.279076 0 0 1 143.75 132.8125 z M 96.65625 137.46875 A 16.279016 16.279076 0 0 1 112.46875 153.75 A 16.28125 16.28131 0 0 1 79.90625 153.75 A 16.279016 16.279076 0 0 1 96.65625 137.46875 z "
     id="path10" />
</svg>
